<svg id="Capa_1" data-name="Capa 1" xmlns="http://www.w3.org/2000/svg" viewBox="0 0 170.08 170.08"><defs><style>.cls-1{fill:#1aa3d1;}</style></defs><title>logo-jesus-recuero_RGB-AZUL</title><path class="cls-1" d="M83.79,25.4l-.33-.25a5.49,5.49,0,0,0-4-1.12,5.37,5.37,0,0,0-4.57,4.46l-.53,21.32-.69,27c-.16,1.25-.4,2.51-1.66,2.53s-1.59-.66-1.72-1.94L67.63,58.83,65.46,36.77a4.76,4.76,0,0,0-4.61-4.38A4.59,4.59,0,0,0,58,33.3a6.25,6.25,0,0,0-2.6,5.29l-.08,23,1.6,23s2.66,14,.4,17.85c-1.11,1.89-4.34.44-5.59-1.36l-3.43-4.91A20.09,20.09,0,0,0,43,91l-3.15-2.1a9.41,9.41,0,0,0-9.32-.64l-.65.32a2.63,2.63,0,0,0-1,3.86l4.45,6.43a33.45,33.45,0,0,1,3.94,7.63c.88,2.43,1.38,6.13,3.86,8.61a50.79,50.79,0,0,1,9.11,13.5,20.83,20.83,0,0,0,4.41,5s6.8,3.47,8.7,5.22c.81,2.09.12,13.76.12,13.76a3.93,3.93,0,0,0,3.21,3.83l6.4,1.19a70.88,70.88,0,0,0,12.93,1l.18-117.2L85.9,29.67A5.36,5.36,0,0,0,83.79,25.4Z"/><path class="cls-1" d="M141.36,143.07,112.58,95A28.8,28.8,0,0,0,110,37.5H95.55V15.58a6.55,6.55,0,1,0-4.19,0v90.16a2.07,2.07,0,0,0,1,1.8v58.71a1,1,0,1,0,2.09,0V107.54a2.07,2.07,0,0,0,1-1.8V95.1h11l30.31,50.66a2.62,2.62,0,0,0,4.5-2.69ZM93.45,13.31a3.93,3.93,0,1,1,3.93-3.93A3.93,3.93,0,0,1,93.45,13.31Zm2.1,76.55V42.74H110a23.56,23.56,0,0,1,0,47.12Z"/></svg>