<?xml version="1.0" encoding="utf-8"?>
<!-- Generator: Adobe Illustrator 23.0.4, SVG Export Plug-In . SVG Version: 6.00 Build 0)  -->
<svg version="1.1" id="Capa_1" xmlns="http://www.w3.org/2000/svg" xmlns:xlink="http://www.w3.org/1999/xlink" x="0px" y="0px"
	 viewBox="0 0 170.08 170.08" style="enable-background:new 0 0 170.08 170.08;" xml:space="preserve">
<style type="text/css">
	.st0{fill:#FFFFFF;}
</style>
<g>
	<path class="st0" d="M83.79,25.4l-0.33-0.25c-1.16-0.88-2.61-1.32-4.05-1.12c-2.4,0.34-4.2,2.17-4.57,4.45l-0.53,21.32l-0.69,26.96
		c-0.16,1.25-0.4,2.51-1.66,2.52c-1.33,0.02-1.59-0.66-1.72-1.94l-2.61-18.52l-2.17-22.06c-0.18-2.33-2.05-4.28-4.61-4.38
		c-1.04-0.04-2.04,0.3-2.88,0.91c-1.69,1.22-2.67,3.21-2.6,5.29L55.3,61.62l1.6,22.98c0,0,2.66,14,0.4,17.85
		c-1.11,1.89-4.34,0.44-5.59-1.36l-3.42-4.92c-1.43-2.06-3.24-3.83-5.33-5.22l-3.15-2.1c-2.77-1.85-6.32-2.09-9.32-0.64l-0.65,0.31
		c-1.45,0.7-1.93,2.53-1.02,3.86l4.45,6.43c1.63,2.36,2.96,4.93,3.94,7.63c0.88,2.43,1.38,6.13,3.86,8.61
		c5.68,5.68,9.11,13.5,9.11,13.5c1.19,1.89,2.68,3.58,4.41,5c0,0,6.8,3.47,8.7,5.22c0.82,2.09,0.12,13.76,0.12,13.76
		c0.02,1.88,1.36,3.48,3.21,3.83l6.4,1.19c4.26,0.79,8.62,0.96,12.93,0.96l0.18-117.2L85.9,29.67C85.9,27.99,85.12,26.41,83.79,25.4
		z"/>
	<path class="st0" d="M141.36,143.07l-28.78-48.09c14.67-1.31,26.22-13.67,26.22-28.68c0-15.88-12.92-28.8-28.8-28.8H95.55V15.58
		c2.58-0.88,4.45-3.32,4.45-6.2c0-3.61-2.94-6.55-6.55-6.55s-6.55,2.94-6.55,6.55c0,2.88,1.87,5.32,4.45,6.2v90.16
		c0,0.77,0.42,1.44,1.05,1.8v58.71c0,0.58,0.47,1.05,1.05,1.05c0.58,0,1.05-0.47,1.05-1.05v-58.71c0.62-0.36,1.05-1.03,1.05-1.8
		V95.1h11l30.32,50.66c0.49,0.82,1.36,1.27,2.25,1.27c0.46,0,0.92-0.12,1.34-0.37C141.7,145.92,142.1,144.31,141.36,143.07z
		 M93.45,13.31c-2.17,0-3.93-1.76-3.93-3.93s1.76-3.93,3.93-3.93s3.93,1.76,3.93,3.93S95.62,13.31,93.45,13.31z M95.55,89.86V42.74
		H110c12.99,0,23.56,10.57,23.56,23.56S122.99,89.86,110,89.86H95.55z"/>
</g>
</svg>
